<svg width="1755" height="352" viewBox="0 0 1755 352" fill="none" xmlns="http://www.w3.org/2000/svg">
<g style="mix-blend-mode:plus-lighter">
<rect opacity="0.32" width="692.084" height="323.108" rx="161.554" fill="#05090F"/>
<circle cx="79.1688" cy="79.1688" r="79.1688" transform="matrix(1 0 0 -1 75.1602 243.098)" fill="#05090F"/>
<circle cx="79.1688" cy="79.1688" r="79.1688" transform="matrix(1 0 0 -1 838.568 248.75)" fill="#05090F"/>
<circle cx="79.1688" cy="79.1688" r="79.1688" transform="matrix(1 0 0 -1 1596.32 248.75)" fill="#05090F"/>
<rect x="456.865" y="84.75" width="158.338" height="158.338" fill="#05090F"/>
<path d="M1293.79 84.75L1384.39 241.674H1203.19L1293.79 84.75Z" fill="#05090F"/>
<path d="M1441.25 348.371C1433.06 348.371 1426.42 338.882 1426.42 327.176C1426.42 315.47 1433.06 305.98 1441.25 305.98" stroke="#05090F" stroke-width="7.21507"/>
<path d="M1527.76 289.062L1528.69 290.351L1528.69 290.351L1527.76 289.062ZM1702.51 164.171C1702.65 163.303 1702.06 162.487 1701.19 162.347L1687.06 160.071C1686.19 159.932 1685.37 160.522 1685.23 161.389C1685.09 162.256 1685.68 163.073 1686.55 163.213L1699.12 165.236L1697.09 177.801C1696.95 178.668 1697.54 179.485 1698.41 179.624C1699.28 179.764 1700.09 179.174 1700.23 178.306L1702.51 164.171ZM1321.86 241.044L1323.26 240.302L1323.26 240.302L1321.86 241.044ZM1482.88 310.62L1482.45 309.087L1482.45 309.087L1482.88 310.62ZM1527.76 289.062L1528.69 290.351L1701.87 165.207L1700.94 163.918L1700.01 162.629L1526.83 287.773L1527.76 289.062ZM1292.37 185.124L1290.96 185.866L1320.45 241.786L1321.86 241.044L1323.26 240.302L1293.78 184.382L1292.37 185.124ZM1321.86 241.044L1320.45 241.786C1351.46 300.593 1419.23 329.877 1483.3 312.154L1482.88 310.62L1482.45 309.087C1419.82 326.411 1353.57 297.787 1323.26 240.302L1321.86 241.044ZM1527.76 289.062L1526.83 287.773C1513.42 297.46 1498.4 304.678 1482.45 309.087L1482.88 310.62L1483.3 312.154C1499.61 307.643 1514.98 300.26 1528.69 290.351L1527.76 289.062Z" fill="#05090F"/>
<path d="M1441.25 348.371C1450.62 348.371 1458.21 338.882 1458.21 327.176C1458.21 315.47 1450.62 305.98 1441.25 305.98" stroke="#05090F" stroke-width="7.21507"/>
</g>
</svg>
