<svg width="332" height="332" viewBox="0 0 332 332" fill="none" xmlns="http://www.w3.org/2000/svg">
<g opacity="0.99">
<path fill-rule="evenodd" clip-rule="evenodd" d="M236.124 71.6164C236.124 65.2008 230.923 60 224.507 60H176.953C170.537 60 165.336 65.2008 165.336 71.6164V119.171C165.336 125.586 160.136 130.787 153.72 130.787H107.616C101.201 130.787 96 135.988 96 142.403V201.213V201.574V260.384C96 266.8 101.201 272.001 107.616 272.001H155.171C161.587 272.001 166.787 266.8 166.787 260.384V213.191C166.787 206.775 171.988 201.574 178.404 201.574H224.507C230.923 201.574 236.124 196.373 236.124 189.958V130.787V130.787V71.6164Z" fill="#D9D9D9"/>
</g>
</svg>
