<svg width="258" height="266" viewBox="0 0 258 266" fill="none" xmlns="http://www.w3.org/2000/svg">
<rect width="118" height="30" transform="matrix(0.866025 0.5 -0.866025 0.5 27.8555 47.5)" fill="#FFF2C9" stroke="black"/>
<rect width="118" height="30" transform="matrix(0.866025 0.5 0 1 1.875 62.5)" fill="#FFDE73" stroke="black"/>
<rect width="30" height="30" transform="matrix(0.866025 -0.5 0 1 104.062 121.5)" fill="#6580E1"/>
<rect width="30" height="118" transform="matrix(0.866025 0.5 -0.866025 0.5 231.059 45.5)" fill="#FFF2C9" stroke="black"/>
<rect width="30" height="30" transform="matrix(0.866025 0.5 0 1 128.867 104.5)" fill="#93AAFC"/>
<rect width="118" height="30" transform="matrix(0.866025 -0.5 0 1 154.848 119.5)" fill="#FFC400" stroke="black"/>
<rect width="30" height="30" transform="matrix(0.866025 0.5 -0.866025 0.5 128.852 0.5)" fill="#FFF2C9" stroke="black"/>
<rect width="30" height="234" transform="matrix(0.866025 0.5 0 1 102.867 15.5)" fill="#FFDE73" stroke="black"/>
<rect width="30" height="234" transform="matrix(0.866025 -0.5 0 1 128.852 30.5)" fill="#FFC400" stroke="black"/>
<rect width="118" height="30" transform="matrix(0.866025 0.5 -0.866025 0.5 154.855 120.5)" fill="#FFF2C9" stroke="black"/>
<rect width="118" height="30" transform="matrix(0.866025 0.5 0 1 128.875 135.5)" fill="#FFDE73" stroke="black"/>
<rect width="30" height="30" transform="matrix(0.866025 -0.5 0 1 231.062 194.5)" fill="#FFC400" stroke="black"/>
<rect width="30" height="118" transform="matrix(0.866025 0.5 -0.866025 0.5 103.059 120.5)" fill="#FFF2C9" stroke="black"/>
<rect width="30" height="30" transform="matrix(0.866025 0.5 0 1 0.867188 179.5)" fill="#FFDE73" stroke="black"/>
<rect width="118" height="30" transform="matrix(0.866025 -0.5 0 1 26.8477 194.5)" fill="#FFC400" stroke="black"/>
</svg>
