<svg width="305" height="191" viewBox="0 0 305 191" fill="none" xmlns="http://www.w3.org/2000/svg">
<g opacity="0.8">
<rect width="174.499" height="174.499" transform="matrix(0.866025 0.5 -0.866025 0.5 152.043 0.5)" fill="#D78888" stroke="black"/>
<rect width="174.499" height="14.9145" transform="matrix(0.866025 0.5 0 1 0.917969 87.75)" fill="#D78888" stroke="black"/>
<rect width="174.499" height="14.9145" transform="matrix(0.866025 -0.5 0 1 152.043 175)" fill="#D78888" stroke="black"/>
</g>
<path d="M166.633 9.23245L15.3824 96.5569M181.758 17.9649L30.5074 105.289M196.883 26.6973L45.6325 114.022M212.008 35.4298L60.7575 122.754M227.133 44.1622L75.8826 131.487M242.258 52.8947L91.0076 140.219M257.383 61.6271L106.133 148.952M272.508 70.3596L121.258 157.684M287.633 79.092L136.383 166.417M136.383 9.23245L287.633 96.5569M121.258 17.9649L272.508 105.289M106.133 26.6973L257.383 114.022M91.0076 35.4298L242.258 122.754M75.8826 44.1622L227.133 131.487M60.7575 52.8947L212.008 140.219M45.6325 61.6271L196.883 148.952M30.5074 70.3596L181.758 157.684M15.3824 79.092L166.633 166.417M151.508 0.5L0.257355 87.8245L151.508 175.149L302.758 87.8245L151.508 0.5Z" stroke="black" stroke-width="0.298289"/>
</svg>
