<svg width="304" height="191" viewBox="0 0 304 191" fill="none" xmlns="http://www.w3.org/2000/svg">
<g opacity="0.98">
<rect width="174.499" height="174.499" transform="matrix(0.866025 0.5 -0.866025 0.5 151.988 0.5)" fill="#BC3636" stroke="black"/>
<rect width="174.499" height="14.9145" transform="matrix(0.866025 0.5 0 1 0.863281 87.75)" fill="#BC3636" stroke="black"/>
<rect width="174.499" height="14.9145" transform="matrix(0.866025 -0.5 0 1 151.988 175)" fill="#BC3636" stroke="black"/>
</g>
<path d="M167.578 9.23636L16.3277 96.5608M182.703 17.9688L31.4528 105.293M197.828 26.7013L46.5778 114.026M212.953 35.4337L61.7029 122.758M228.078 44.1662L76.8279 131.491M243.203 52.8986L91.9529 140.223M258.328 61.6311L107.078 148.956M273.453 70.3635L122.203 157.688M288.579 79.096L137.328 166.42M137.328 9.23636L288.579 96.5608M122.203 17.9688L273.453 105.293M107.078 26.7013L258.328 114.026M91.9529 35.4337L243.203 122.758M76.8279 44.1662L228.078 131.491M61.7029 52.8986L212.953 140.223M46.5778 61.6311L197.828 148.956M31.4528 70.3635L182.703 157.688M16.3277 79.096L167.578 166.42M152.453 0.503906L1.20267 87.8284L152.453 175.153L303.704 87.8284L152.453 0.503906Z" stroke="black" stroke-width="0.298289"/>
</svg>
